<?xml version="1.0" encoding="UTF-8" standalone="no"?>
<!-- Created with Inkscape (http://www.inkscape.org/) -->

<svg
   version="1.1"
   id="svg282"
   width="512"
   height="512"
   viewBox="0 0 511.99998 511.99998"
   sodipodi:docname="nfcat_logo.svg"
   inkscape:version="1.2.2 (b0a84865, 2022-12-01)"
   xmlns:inkscape="http://www.inkscape.org/namespaces/inkscape"
   xmlns:sodipodi="http://sodipodi.sourceforge.net/DTD/sodipodi-0.dtd"
   xmlns="http://www.w3.org/2000/svg"
   xmlns:svg="http://www.w3.org/2000/svg">
  <defs
     id="defs286" />
  <sodipodi:namedview
     id="namedview284"
     pagecolor="#ffffff"
     bordercolor="#000000"
     borderopacity="0.25"
     inkscape:showpageshadow="2"
     inkscape:pageopacity="0.0"
     inkscape:pagecheckerboard="0"
     inkscape:deskcolor="#d1d1d1"
     showgrid="false"
     inkscape:zoom="1.1780638"
     inkscape:cx="141.75803"
     inkscape:cy="247.01548"
     inkscape:window-width="1470"
     inkscape:window-height="920"
     inkscape:window-x="1080"
     inkscape:window-y="1000"
     inkscape:window-maximized="0"
     inkscape:current-layer="g288" />
  <g
     inkscape:groupmode="layer"
     inkscape:label="Image"
     id="g288">
    <path
       id="path1075-6-4-5-9"
       style="fill:#fbbf24;fill-opacity:1;stroke-width:1.68808"
       d="m 482.78401,46.996547 c -22.59096,0.720484 -61.37666,29.993739 -78.26472,68.066733 -11.0704,24.95742 -10.75449,21.4264 -11.78999,131.98739 -1.04583,111.66589 -0.70024,108.16391 -12.85514,130.47099 -12.57942,23.08622 -36.77837,39.94103 -57.42666,39.99708 -7.24224,0.0197 -7.32169,-0.0482 -8.30361,-6.85592 -13.17917,-91.36917 -62.06958,-169.1456 -132.78226,-211.24168 -9.37912,-5.58349 -9.37793,-5.58529 -9.37793,-77.05296 0,-81.169634 1.4646,-73.960563 -13.93862,-68.566105 -6.22735,2.180904 -10.38589,5.382467 -16.75154,12.889502 -8.46826,9.986682 -8.46909,9.98443 -18.81313,4.938646 -15.45928,-7.54101 -41.409852,-7.51106 -56.533301,0.06414 -10.403797,5.21107 -10.403093,5.210871 -18.636752,-4.656896 -7.977493,-9.560912 -19.323543,-16.135355 -27.842876,-16.135355 -2.684055,0 -2.898457,10.579937 -2.916003,175.312788 l 6.406955,0.20845 c 38.010411,1.23307 78.439797,13.29036 111.444827,33.23737 16.92013,10.22597 28.60545,19.35562 43.37579,33.89249 14.77032,14.53688 24.06274,26.05403 34.49723,42.75045 20.3866,32.62089 32.56743,71.95797 34.41705,111.14704 0.20186,4.27641 0.15836,7.98564 -0.0985,8.24177 -0.0106,0.0105 -0.71801,0.0175 -0.77196,0.0274 67.3254,-0.27447 86.24872,-0.93788 93.26392,-2.66861 35.51278,-8.76142 65.5263,-40.28634 79.51084,-83.51261 4.33962,-13.41368 4.34065,-13.41249 5.19061,-113.32087 0.83562,-98.22259 0.90983,-100.10723 4.4095,-111.62349 9.09153,-29.917 30.48046,-52.913339 54.97338,-59.107991 11.02943,-2.789515 16.80423,-9.634621 16.80423,-19.919517 0,-13.325496 -6.92274,-18.897813 -17.19136,-18.57032 z M 16.537733,291.20758 v 65.44165 l 6.017545,0.55206 c 50.187925,4.60301 89.550852,44.55105 92.320172,93.69226 l 0.28404,5.04631 57.21134,-0.055 c 3.61187,-0.004 5.38204,-0.0165 8.83733,-0.0206 l -0.4421,-7.47669 c -1.8033,-30.45089 -10.66611,-56.91236 -28.06507,-83.79665 -4.84514,-7.48661 -7.6548,-10.65881 -21.64208,-24.42522 -13.88064,-13.66139 -17.26163,-16.56859 -24.77113,-21.30308 -23.702509,-14.9434 -50.668305,-24.37723 -75.65566,-26.46849 -4.320929,-0.36162 -9.955878,-0.83606 -12.522992,-1.05369 z m 0,131.04594 v 33.78026 l 32.996854,-0.032 c -0.419727,-0.43841 -0.71069,-1.89306 -0.645962,-3.27333 0.06591,-1.39527 -0.970305,-5.3465 -2.302105,-8.78008 -3.425274,-8.83026 -10.753779,-16.04259 -19.688159,-19.37663 -3.474098,-1.29642 -7.468715,-2.29624 -8.876279,-2.22194 -0.512403,0.0271 -1.002287,-0.038 -1.484349,-0.0962 z"
       inkscape:export-filename="NFCAT/logo.png"
       inkscape:export-xdpi="96"
       inkscape:export-ydpi="96" />
  </g>
</svg>
