<?xml version="1.0" encoding="UTF-8" standalone="no"?>
<!-- Created with Inkscape (http://www.inkscape.org/) -->

<svg
   version="1.1"
   id="svg282"
   width="512"
   height="512"
   viewBox="0 0 511.99998 511.99998"
   sodipodi:docname="pwa_icon.svg"
   inkscape:version="1.2.2 (b0a84865, 2022-12-01)"
   xmlns:inkscape="http://www.inkscape.org/namespaces/inkscape"
   xmlns:sodipodi="http://sodipodi.sourceforge.net/DTD/sodipodi-0.dtd"
   xmlns:xlink="http://www.w3.org/1999/xlink"
   xmlns="http://www.w3.org/2000/svg"
   xmlns:svg="http://www.w3.org/2000/svg">
  <defs
     id="defs286">
    <linearGradient
       inkscape:collect="always"
       id="linearGradient1101">
      <stop
         style="stop-color:#131313;stop-opacity:1;"
         offset="0"
         id="stop1099" />
      <stop
         style="stop-color:#313131;stop-opacity:1;"
         offset="1"
         id="stop1097" />
    </linearGradient>
    <linearGradient
       inkscape:collect="always"
       xlink:href="#linearGradient1101"
       id="linearGradient1103"
       x1="49.865883"
       y1="447.42065"
       x2="455.6998"
       y2="58.145046"
       gradientUnits="userSpaceOnUse" />
  </defs>
  <sodipodi:namedview
     id="namedview284"
     pagecolor="#ffffff"
     bordercolor="#000000"
     borderopacity="0.25"
     inkscape:showpageshadow="2"
     inkscape:pageopacity="0.0"
     inkscape:pagecheckerboard="0"
     inkscape:deskcolor="#d1d1d1"
     showgrid="false"
     inkscape:zoom="0.69447518"
     inkscape:cx="61.91726"
     inkscape:cy="251.98885"
     inkscape:window-width="1470"
     inkscape:window-height="806"
     inkscape:window-x="1080"
     inkscape:window-y="1001"
     inkscape:window-maximized="0"
     inkscape:current-layer="g288" />
  <g
     inkscape:groupmode="layer"
     inkscape:label="Image"
     id="g288">
    <rect
       style="fill:url(#linearGradient1103);fill-opacity:1;stroke:none;stroke-width:7.66001"
       id="rect896"
       width="418.70255"
       height="418.70255"
       x="46.648727"
       y="46.648727"
       rx="40.88892"
       ry="40.182587" />
    <path
       id="path1075-6-4-5-9"
       style="fill:#fbbf24;fill-opacity:1;stroke-width:1.13984"
       d="m 407.60719,117.90795 c -15.25404,0.48649 -41.44323,20.25261 -52.84651,45.96056 -7.47505,16.85195 -7.26174,14.4677 -7.96094,89.12157 -0.70617,75.39993 -0.47282,73.03529 -8.68014,88.09765 -8.49398,15.58846 -24.83379,26.9693 -38.77609,27.00714 -4.89016,0.0133 -4.94381,-0.0325 -5.60683,-4.6293 -8.89894,-61.69501 -41.91111,-114.21183 -89.65828,-142.63628 -6.33305,-3.77012 -6.33225,-3.77134 -6.33225,-52.02831 0,-54.80801 0.98894,-49.94024 -9.41174,-46.29775 -4.20488,1.47261 -7.01285,3.63439 -11.31111,8.70335 -5.718,6.7433 -5.71856,6.74178 -12.70314,3.33471 -10.43855,-5.09189 -27.96109,-5.07167 -38.17287,0.0434 -7.02493,3.51866 -7.02446,3.51853 -12.58405,-3.14447 -5.38663,-6.45583 -13.0478,-10.89508 -18.80029,-10.89508 -1.812349,0 -1.95712,7.14387 -1.968967,118.3761 l 4.326155,0.14075 c 25.665692,0.8326 52.964732,8.97402 75.250652,22.4428 11.42495,6.90486 19.3152,13.06945 29.28855,22.88515 9.97333,9.81571 16.24783,17.59241 23.29349,28.8663 13.7656,22.02653 21.99044,48.58803 23.23935,75.04958 0.13631,2.88755 0.10693,5.39213 -0.0665,5.56508 -0.007,0.007 -0.48482,0.0119 -0.52124,0.0185 45.45998,-0.18533 58.23754,-0.63328 62.9744,-1.80192 23.97922,-5.91595 44.24519,-27.20246 53.68794,-56.39005 2.93023,-9.05729 2.93092,-9.05648 3.50484,-76.51741 0.56423,-66.32263 0.61435,-67.59519 2.97742,-75.37129 6.13885,-20.2008 20.58125,-35.72857 37.11956,-39.91137 7.44738,-1.88355 11.34669,-6.50556 11.34669,-13.45021 0,-8.99775 -4.67443,-12.76034 -11.60809,-12.53921 z M 92.784702,282.80606 v 44.18802 l 4.063215,0.37277 c 33.888283,3.10808 60.467233,30.08211 62.337153,63.26363 l 0.19179,3.40741 38.6307,-0.0371 c 2.43883,-0.002 3.6341,-0.0111 5.96721,-0.0139 l -0.29852,-5.04848 c -1.21764,-20.56128 -7.20205,-38.42881 -18.95032,-56.58183 -3.27158,-5.05516 -5.16873,-7.19712 -14.61334,-16.49259 -9.37259,-9.22457 -11.65553,-11.18759 -16.72616,-14.38445 -16.00459,-10.0902 -34.21264,-16.46019 -51.0848,-17.87226 -2.917616,-0.24418 -6.722491,-0.56453 -8.455878,-0.71148 z m 0,88.48587 v 22.80938 l 22.280398,-0.0216 c -0.28341,-0.29603 -0.47988,-1.27825 -0.43617,-2.21025 0.0445,-0.94213 -0.65518,-3.6101 -1.55445,-5.92855 -2.31284,-5.96244 -7.26125,-10.83241 -13.293992,-13.08364 -2.345808,-0.87538 -5.043085,-1.55049 -5.993511,-1.50032 -0.345989,0.0183 -0.676772,-0.0257 -1.002274,-0.0649 z"
       inkscape:export-filename="NFCAT/logo.png"
       inkscape:export-xdpi="96"
       inkscape:export-ydpi="96" />
  </g>
</svg>
