<?xml version="1.0" standalone="no"?>
<!DOCTYPE svg PUBLIC "-//W3C//DTD SVG 20010904//EN"
 "http://www.w3.org/TR/2001/REC-SVG-20010904/DTD/svg10.dtd">
<svg version="1.0" xmlns="http://www.w3.org/2000/svg"
 width="412.000000pt" height="412.000000pt" viewBox="0 0 412.000000 412.000000"
 preserveAspectRatio="xMidYMid meet">
<metadata>
Created by potrace 1.14, written by Peter Selinger 2001-2017
</metadata>
<g transform="translate(0.000000,412.000000) scale(0.100000,-0.100000)"
fill="#000000" stroke="none">
<path d="M3874 3778 c-232 -78 -481 -338 -593 -618 -64 -162 -67 -205 -76
-1110 -6 -563 -9 -699 -20 -810 -22 -231 -217 -488 -433 -571 -31 -12 -89 -24
-128 -26 -85 -6 -75 -23 -108 177 -63 374 -250 802 -493 1125 -139 184 -355
384 -562 519 -61 40 -105 76 -111 90 -19 51 -22 128 -25 611 -2 497 -7 594
-29 596 -64 8 -156 -44 -233 -130 -69 -76 -79 -79 -150 -46 -145 69 -373 66
-515 -6 -20 -10 -44 -19 -53 -19 -9 0 -49 33 -88 74 -99 100 -224 161 -243
118 -4 -10 -9 -347 -11 -749 l-5 -733 54 -1 c89 -2 214 -15 268 -29 19 -5 51
-11 70 -14 115 -17 344 -99 497 -177 538 -276 921 -782 1038 -1374 6 -29 10
-52 20 -117 3 -18 8 -76 11 -128 3 -52 7 -100 9 -106 4 -13 503 -12 681 1 334
23 636 301 777 716 14 41 28 102 31 135 6 65 14 466 21 1149 3 248 7 477 10
509 14 175 101 353 237 487 72 71 144 114 252 150 38 13 82 35 97 50 50 47 63
164 23 224 -36 55 -118 68 -220 33z"/>
<path d="M0 1435 l0 -282 22 2 c43 3 173 -25 258 -56 143 -53 283 -155 382
-279 77 -97 151 -264 164 -372 4 -29 8 -60 10 -68 1 -8 3 -27 3 -43 l1 -27
283 2 c181 2 281 7 280 13 0 6 -4 46 -8 90 -20 245 -99 469 -240 680 -66 99
-285 316 -385 381 -121 78 -340 173 -460 200 -48 10 -205 33 -257 37 l-53 3 0
-281z"/>
<path d="M0 455 l0 -145 140 0 140 0 -6 35 c-19 124 -121 228 -243 250 l-31 5
0 -145z"/>
</g>
</svg>
