<?xml version="1.0" encoding="UTF-8" standalone="no"?>
<!-- Created with Inkscape (http://www.inkscape.org/) -->

<svg
   version="1.1"
   id="svg282"
   width="512"
   height="512"
   viewBox="0 0 511.99998 511.99998"
   sodipodi:docname="nfcat_logo.svg"
   inkscape:version="1.2.2 (b0a84865, 2022-12-01)"
   xmlns:inkscape="http://www.inkscape.org/namespaces/inkscape"
   xmlns:sodipodi="http://sodipodi.sourceforge.net/DTD/sodipodi-0.dtd"
   xmlns="http://www.w3.org/2000/svg"
   xmlns:svg="http://www.w3.org/2000/svg">
  <defs
     id="defs286" />
  <sodipodi:namedview
     id="namedview284"
     pagecolor="#ffffff"
     bordercolor="#000000"
     borderopacity="0.25"
     inkscape:showpageshadow="2"
     inkscape:pageopacity="0.0"
     inkscape:pagecheckerboard="0"
     inkscape:deskcolor="#d1d1d1"
     showgrid="false"
     inkscape:zoom="0.53091222"
     inkscape:cx="22.602607"
     inkscape:cy="314.55294"
     inkscape:window-width="1470"
     inkscape:window-height="920"
     inkscape:window-x="1080"
     inkscape:window-y="1000"
     inkscape:window-maximized="0"
     inkscape:current-layer="g288" />
  <g
     inkscape:groupmode="layer"
     inkscape:label="Image"
     id="g288">
    <path
       style="fill:#000000;stroke-width:1.41205"
       d="m -436.55118,866.49993 c -30.18197,-7.21319 -55.69016,-33.16622 -67.57549,-68.75397 -3.68821,-11.04335 -3.68821,-11.04335 -4.41058,-93.29689 -0.71019,-80.86566 -0.77344,-82.41627 -3.74779,-91.8975 -7.72679,-24.63035 -25.90467,-43.56433 -46.72097,-48.66432 -9.37382,-2.29658 -14.28105,-7.93161 -14.28105,-16.39908 0,-35.10638 60.24905,-4.84342 81.12615,40.74947 9.40862,20.54719 9.14066,17.64149 10.02072,108.66523 0.88884,91.93338 0.59555,89.05 10.92589,107.4152 10.69112,19.00664 31.25651,32.88159 48.80529,32.92773 6.15511,0.0162 6.22364,-0.0386 7.05817,-5.64333 11.20085,-75.22331 52.75073,-139.25689 112.84877,-173.91416 7.97123,-4.59683 7.97123,-4.59683 7.97123,-63.43545 0,-66.82612 -1.2454,-60.8912 11.84565,-56.45001 5.29257,1.79552 8.82774,4.43006 14.23784,10.61053 7.1971,8.22193 7.1971,8.22193 15.98837,4.06779 13.1387,-6.20844 35.19308,-6.18465 48.04641,0.052 8.8421,4.2902 8.8421,4.2902 15.83977,-3.83382 6.78003,-7.87141 16.42285,-13.28502 23.66339,-13.28502 2.42494,0 2.49053,4.39243 2.49053,166.77095 v 166.77094 l -132.44223,-0.123 c -110.90055,-0.10311 -133.9464,-0.48251 -141.69007,-2.33317 z m 192.2885,-259.43557 c 4.84672,-2.86321 4.83788,-3.10144 -0.2261,-6.093 -4.49884,-2.65772 -10.87953,-2.05164 -15.04651,1.42922 -5.59183,4.67106 8.15456,8.8688 15.27261,4.66378 z m 44.91806,0 c 4.84672,-2.86321 4.83788,-3.10144 -0.2261,-6.093 -4.49883,-2.65772 -10.87952,-2.05164 -15.0465,1.42922 -5.59183,4.67106 8.15456,8.8688 15.2726,4.66378 z"
       id="path1075"
       sodipodi:nodetypes="sssssssssscssssssssscsssssssssss" />
    <path
       style="fill:#c6c6c6;fill-opacity:1;stroke-width:0.703225"
       d="m -396.49125,866.93056 22.8158,0.0394 0.28016,-3.65171 c 0.15409,-2.00843 0.47958,-6.77228 0.72334,-10.58631 4.28894,-67.10994 43.08608,-129.72267 102.06021,-164.70975 29.27337,-17.36677 62.10044,-27.08765 97.16779,-28.77369 4.94272,-0.23766 9.10609,-0.54016 9.25191,-0.67225 0.14584,-0.13207 0.29617,-10.45647 0.33413,-22.94309 l 0.069,-22.70294 -8.50958,0.24236 c -81.11715,2.31032 -156.77412,43.83562 -202.91215,111.37098 -26.61623,38.96 -42.40036,87.14386 -43.83417,133.81171 l -0.26226,8.53574 z m 92.40814,0.28381 22.65877,0.0688 0.32942,-5.61383 c 1.25938,-21.46129 7.44878,-40.11167 19.59967,-59.05929 3.38372,-5.27644 5.34647,-7.51179 15.11478,-17.21414 9.69381,-9.62831 12.05508,-11.67769 17.29954,-15.01446 16.55311,-10.53187 35.38426,-17.18066 52.83465,-18.65453 3.01766,-0.25488 6.95345,-0.58891 8.74621,-0.74229 l 3.25958,-0.27885 0.0366,-22.84697 0.0366,-22.84696 -6.71958,0.21998 c -26.54528,0.86905 -54.78058,9.36746 -77.83024,23.42578 -11.81656,7.20709 -19.97687,13.64207 -30.292,23.88742 -10.31514,10.24534 -16.80537,18.36177 -24.0925,30.12914 -14.23737,22.99067 -22.74422,50.71514 -24.03594,78.33495 -0.14096,3.01395 -0.10959,5.6276 0.0698,5.80812 0.17928,0.18051 10.52243,0.3592 22.98475,0.39709 z m 91.43173,0.33107 c 12.45961,0.0264 22.8979,-0.19428 23.1962,-0.49055 0.29831,-0.29629 0.50498,-1.34327 0.45928,-2.32664 -0.0457,-0.98336 0.67793,-3.76787 1.60807,-6.1878 2.39209,-6.22342 7.51017,-11.30687 13.74968,-13.65665 2.42619,-0.9137 5.21555,-1.61841 6.19858,-1.56604 0.98303,0.0524 2.03502,-0.15079 2.33775,-0.45147 0.30272,-0.30068 0.58152,-10.78186 0.61955,-23.29152 l 0.0691,-22.74484 -6.19249,0.57316 c -35.04972,3.24414 -62.53872,31.39786 -64.47273,66.03178 l -0.22686,4.06243 z"
       id="path1124" />
    <path
       style="fill:#000000;stroke-width:1.41116"
       d="m 860.88138,-70.718301 c 29.78985,-7.298938 54.96665,-33.560489 66.69757,-69.571299 3.64029,-11.17463 3.64029,-11.17463 4.35328,-94.40598 0.70096,-81.82697 0.76339,-83.39602 3.6991,-92.98996 7.6264,-24.92315 25.56812,-44.08221 46.11398,-49.24282 9.25204,-2.32388 14.09555,-8.02591 14.09555,-16.59402 0,-35.52372 -59.46635,-4.90101 -80.07222,41.23387 -9.28638,20.79145 -9.0219,17.85121 -9.89053,109.95703 -0.8773,93.02626 -0.58781,90.1086 -10.78395,108.69212 -10.55222,19.23258 -30.85043,33.27248 -48.17122,33.31916 -6.07514,0.0164 -6.14279,-0.039 -6.96648,-5.71042 -11.05533,-76.11754 -52.06541,-140.91233 -111.38267,-175.9816 -7.86767,-4.65147 -7.86767,-4.65147 -7.86767,-64.18956 0,-67.62053 1.22922,-61.61505 -11.69175,-57.12106 -5.22381,1.81687 -8.71306,4.48271 -14.05287,10.73666 -7.10359,8.31967 -7.10359,8.31967 -15.78069,4.11614 -12.968,-6.28224 -34.73587,-6.25816 -47.42219,0.0525 -8.72723,4.3412 -8.72723,4.3412 -15.63401,-3.8794 -6.69192,-7.96498 -16.20944,-13.44294 -23.35588,-13.44294 -2.39348,0 -2.45822,4.44464 -2.45822,168.75347 v 168.753469 l 130.72159,-0.124462 c 109.45977,-0.104336 132.20621,-0.488246 139.84928,-2.360906 z"
       id="path1075-6"
       sodipodi:nodetypes="sssssssssscssssssssscsss" />
    <path
       style="fill:#c6c6c6;fill-opacity:1;stroke-width:0.573554"
       d="m 779.47358,-68.144695 -18.60865,0.03214 -0.2285,-2.978351 c -0.12568,-1.638083 -0.39116,-5.5235 -0.58997,-8.63424 -3.49807,-54.735164 -35.14119,-105.802374 -83.24074,-134.337984 -23.8755,-14.16441 -50.64943,-22.0928 -79.25047,-23.46794 -4.03129,-0.19384 -7.42697,-0.44056 -7.5459,-0.5483 -0.11899,-0.10772 -0.24158,-8.52834 -0.27248,-18.71248 l -0.0563,-18.51662 6.94039,0.19768 c 66.15954,1.8843 127.86567,35.75251 165.49605,90.83464 21.70832,31.77595 34.58191,71.07491 35.75134,109.137416 l 0.2139,6.961787 z m -75.36847,0.231476 -18.48059,0.05612 -0.26868,-4.578664 c -1.02715,-17.503921 -6.07525,-32.715257 -15.98557,-48.169017 -2.75976,-4.30349 -4.36063,-6.12665 -12.3277,-14.03993 -7.90631,-7.85289 -9.83218,-9.52437 -14.10954,-12.24586 -13.50078,-8.58984 -28.85959,-14.01261 -43.09222,-15.21471 -2.46116,-0.20788 -5.67122,-0.48031 -7.13344,-0.60541 l -2.65854,-0.22743 -0.0302,-18.6341 -0.0302,-18.63407 5.48054,0.17942 c 21.65046,0.7088 44.67929,7.64013 63.47873,19.10616 9.63759,5.87814 16.29315,11.12654 24.70625,19.48269 8.41307,8.35614 13.70653,14.97594 19.64995,24.57345 11.61205,18.75129 18.55028,41.363493 19.60381,63.890328 0.11497,2.458191 0.0893,4.589895 -0.0569,4.737128 -0.14623,0.147224 -8.58214,0.292965 -18.74646,0.323868 z m -74.57214,0.270023 c -10.1621,0.02153 -18.67562,-0.158456 -18.91892,-0.400094 -0.24329,-0.241656 -0.41188,-1.095577 -0.37461,-1.897618 0.0375,-0.802033 -0.55289,-3.073091 -1.31149,-5.046797 -1.95101,-5.075848 -6.12534,-9.221932 -11.21431,-11.138422 -1.97882,-0.745218 -4.25387,-1.319983 -5.0556,-1.277269 -0.80175,0.04274 -1.65976,-0.122985 -1.90664,-0.368221 -0.24697,-0.245236 -0.47436,-8.793731 -0.50535,-18.996663 l -0.0563,-18.55079 5.05063,0.46747 c 28.58669,2.64593 51.00683,25.60824 52.58421,53.855805 l 0.18506,3.313336 z"
       id="path1124-5" />
    <path
       style="fill:#000000;stroke-width:1.41205"
       d="m 129.34905,-151.47281 c -30.181969,-7.21319 -55.690159,-33.16622 -67.575489,-68.75396 -3.68821,-11.04335 -3.68821,-11.04335 -4.41058,-93.29689 -0.71019,-80.86566 -0.77344,-82.41627 -3.74779,-91.8975 -7.72679,-24.63035 -25.90467,-43.56433 -46.72097,-48.66432 -9.37382,-2.29658 -14.28105,-7.93161 -14.28105,-16.39907 0,-35.10638 60.24905,-4.84343 81.12615,40.74946 9.40862,20.54719 9.14066,17.64149 10.02072,108.66523 0.88884,91.93338 0.59555,89.05 10.92589,107.41519 10.691119,19.00664 31.256509,32.88159 48.805289,32.92773 6.15511,0.0162 6.22364,-0.0386 7.05817,-5.64333 11.20085,-75.2233 52.75073,-139.25688 112.84877,-173.91415 7.97123,-4.59683 7.97123,-4.59683 7.97123,-63.43545 0,-66.82612 -1.2454,-60.8912 11.84565,-56.45 5.29257,1.79552 8.82774,4.43005 14.23784,10.61052 7.1971,8.22193 7.1971,8.22193 15.9884,4.06779 13.1387,-6.20844 35.1931,-6.18464 48.04637,0.0519 8.8421,4.29021 8.8421,4.29021 15.8398,-3.83382 6.78,-7.8714 16.4228,-13.28501 23.6633,-13.28501 2.425,0 2.4906,4.39243 2.4906,166.77094 v 166.77093 l -132.44223,-0.123 c -110.90055,-0.10311 -133.9464,-0.48251 -141.69007,-2.33317 z"
       id="path1075-6-4"
       sodipodi:nodetypes="sssssssssscssssssssscsss" />
    <path
       style="fill:#c6c6c6;fill-opacity:1;stroke-width:0.850765"
       d="m 236.46187,-148.82828 27.4127,0.0832 0.39854,-6.79164 c 1.5236,-25.96398 9.01156,-48.52731 23.71178,-71.45023 4.09362,-6.38346 6.46822,-9.0878 18.28596,-20.82575 11.72762,-11.64838 14.58433,-14.12773 20.92903,-18.16458 20.02603,-12.74151 42.80808,-20.78525 63.91966,-22.56835 3.65071,-0.30835 8.41226,-0.71246 10.5812,-0.89802 l 3.94348,-0.33736 0.0448,-27.64038 0.0448,-27.64037 -8.12941,0.26613 c -32.11464,1.05138 -66.27382,11.3328 -94.15947,28.34063 -14.29566,8.71918 -24.16804,16.50425 -36.64737,28.89913 -12.47931,12.39487 -20.33123,22.21417 -29.14724,36.45039 -17.22444,27.81422 -27.51607,61.35543 -29.0788,94.77003 -0.17054,3.64629 -0.13259,6.8083 0.0844,7.02669 0.21689,0.21838 12.73009,0.43456 27.80707,0.4804 z m 110.61463,0.40053 c 15.07365,0.0319 27.70196,-0.23504 28.06285,-0.59347 0.36088,-0.35845 0.61095,-1.62509 0.55566,-2.81478 -0.0557,-1.18967 0.82013,-4.55839 1.94537,-7.48603 2.89397,-7.52913 9.08588,-13.67912 16.63446,-16.52189 2.93523,-1.1054 6.30986,-1.95796 7.4991,-1.8946 1.18923,0.0634 2.46195,-0.18243 2.82816,-0.5462 0.36633,-0.36376 0.70362,-13.04395 0.74959,-28.1782 l 0.0835,-27.51682 -7.49172,0.69342 c -42.40331,3.92477 -75.65961,37.98528 -77.99938,79.88558 l -0.2745,4.91475 z"
       id="path1124-5-6"
       sodipodi:nodetypes="ccssscsscccsssssccccsccsssccsscc" />
    <path
       style="fill:#000000;stroke-width:1.43934"
       d="m -388.34243,-89.339406 c 30.28,-7.470436 55.87104,-34.349034 67.79497,-71.205954 3.70019,-11.43719 3.70019,-11.43719 4.42491,-96.62416 0.71249,-83.74959 0.77595,-85.3555 3.75996,-95.17486 7.75189,-25.50875 25.98881,-45.11798 46.87272,-50.39985 9.40426,-2.37848 14.32743,-8.21448 14.32743,-16.98391 0,-36.35839 -60.44473,-5.01617 -81.38964,42.20271 -9.43918,21.27997 -9.17035,18.27065 -10.05327,112.54059 -0.89173,95.21202 -0.59748,92.22581 -10.96137,111.24597 -10.72585,19.68448 -31.35803,34.05425 -48.96381,34.10204 -6.1751,0.0168 -6.24385,-0.04 -7.08109,-5.84459 -11.23723,-77.90601 -52.92207,-144.22324 -113.2153,-180.1165 -7.99712,-4.76077 -7.99712,-4.76077 -7.99712,-65.69776 0,-69.20936 1.24945,-63.06278 -11.88412,-58.46319 -5.30976,1.85955 -8.85641,4.58804 -14.28409,10.98892 -7.22047,8.51515 -7.22047,8.51515 -16.04033,4.21286 -13.18137,-6.42985 -35.3074,-6.4052 -48.20242,0.0538 -8.87081,4.44322 -8.87081,4.44322 -15.89124,-3.97054 -6.80202,-8.15212 -16.47614,-13.7588 -23.74016,-13.7588 -2.43288,0 -2.49869,4.54908 -2.49869,172.71854 v 172.71852 l 132.87239,-0.127387 c 111.26075,-0.106787 134.38145,-0.499717 142.15027,-2.416378 z"
       id="path1075-6-4-5"
       sodipodi:nodetypes="sssssssssscssssssssscsss" />
    <path
       style="fill:#c6c6c6;fill-opacity:1;stroke-width:0.850765"
       d="m -495.01114,-86.60728 -27.4127,0.0832 -0.39854,-6.79164 c -1.5236,-25.96398 -9.01156,-48.52731 -23.71178,-71.45023 -4.09362,-6.38346 -6.46822,-9.0878 -18.28596,-20.82575 -11.72762,-11.64838 -14.58433,-14.12773 -20.92903,-18.16458 -20.02603,-12.74151 -42.80808,-20.78525 -63.91966,-22.56835 -3.65071,-0.30835 -8.41226,-0.71246 -10.5812,-0.89802 l -3.94348,-0.33736 -0.0448,-27.64038 -0.0448,-27.64037 8.12941,0.26613 c 32.11464,1.05138 66.27382,11.3328 94.15947,28.34063 14.29566,8.71918 24.16804,16.50425 36.64737,28.89913 12.47931,12.39487 20.33123,22.21417 29.14724,36.45039 17.22444,27.81422 27.51607,61.35543 29.0788,94.77003 0.17054,3.64629 0.13259,6.8083 -0.0844,7.02669 -0.21689,0.21838 -12.73009,0.43456 -27.80707,0.4804 z m -110.61463,0.40053 c -15.07365,0.0319 -27.70196,-0.23504 -28.06285,-0.59347 -0.36088,-0.35845 -0.61095,-1.62509 -0.55566,-2.81478 0.0557,-1.18967 -0.82013,-4.55839 -1.94537,-7.48603 -2.89397,-7.52913 -9.08588,-13.67912 -16.63446,-16.52189 -2.93523,-1.1054 -6.30986,-1.95796 -7.4991,-1.8946 -1.18923,0.0634 -2.46195,-0.18243 -2.82816,-0.5462 -0.36633,-0.36376 -0.70362,-13.04395 -0.74959,-28.1782 l -0.0835,-27.51682 7.49172,0.69342 c 42.40331,3.92477 75.65961,37.98528 77.99938,79.88558 l 0.2745,4.91475 z"
       id="path1124-5-6-4"
       sodipodi:nodetypes="ccssscsscccsssssccccsccsssccsscc" />
    <path
       id="path1075-6-4-5-9"
       style="fill:#fbbf24;fill-opacity:1;stroke-width:1.43934"
       d="m 457.6999,77.131346 c -19.26218,0.614321 -52.33281,25.574164 -66.73242,58.037104 -9.43917,21.27995 -9.16981,18.26922 -10.05273,112.53906 -0.89173,95.21193 -0.59706,92.22596 -10.96094,111.2461 -10.72584,19.68446 -31.35908,34.05572 -48.96484,34.10351 -6.1751,0.0168 -6.24284,-0.0411 -7.08008,-5.8457 -11.23722,-77.90593 -52.92363,-144.22201 -113.2168,-180.11523 -7.99711,-4.76077 -7.99609,-4.7623 -7.99609,-65.69922 0,-69.20929 1.24879,-63.062475 -11.88477,-58.46289 -5.30975,1.859548 -8.85553,4.589361 -14.2832,10.990235 -7.22046,8.515145 -7.22117,8.513225 -16.04102,4.210937 -13.18135,-6.429843 -35.30811,-6.404306 -48.20312,0.05469 -8.870798,4.443218 -8.870198,4.443048 -15.890628,-3.970704 -6.80201,-8.152112 -16.47622,-13.757812 -23.74023,-13.757812 -2.28856,0 -2.47137,9.020984 -2.48633,149.480464 l 5.46289,0.17773 c 32.40958,1.05138 66.881698,11.33203 95.023438,28.33985 14.42695,8.71917 24.39044,16.50357 36.98437,28.89843 12.59392,12.39487 20.5171,22.21497 29.41407,36.45118 17.38263,27.8142 27.76862,61.35496 29.3457,94.76953 0.17211,3.64628 0.13502,6.80895 -0.084,7.02734 -0.009,0.009 -0.61221,0.0149 -0.65821,0.0234 57.40501,-0.23403 73.53998,-0.79968 79.52149,-2.27539 30.27997,-7.47043 55.871,-34.35015 67.79492,-71.20703 3.70018,-11.43718 3.70106,-11.43616 4.42578,-96.62305 0.71249,-83.7495 0.77576,-85.35644 3.75976,-95.17578 7.75189,-25.50873 25.98916,-45.11656 46.87305,-50.39843 9.40425,-2.37848 14.32813,-8.21496 14.32813,-16.984378 0,-11.361985 -5.90267,-16.113221 -14.65821,-15.833984 z M 60.154982,285.3579 v 55.79883 l 5.13086,0.47071 c 42.792738,3.92476 76.355538,37.98646 78.716798,79.88671 l 0.24219,4.30274 48.78125,-0.0469 c 3.07966,-0.003 4.589,-0.0141 7.53515,-0.0176 l -0.37695,-6.375 c -1.53759,-25.96396 -9.09446,-48.52633 -23.92969,-71.44922 -4.13121,-6.38346 -6.52686,-9.08824 -18.45312,-20.82617 -11.83533,-11.64838 -14.71813,-14.12721 -21.1211,-18.16407 -20.20995,-12.74149 -43.202338,-20.78525 -64.507808,-22.56836 -3.68424,-0.30834 -8.48888,-0.71287 -10.67773,-0.89843 z m 0,111.73633 v 28.80274 l 28.13477,-0.0273 c -0.35788,-0.37381 -0.60597,-1.61412 -0.55078,-2.79101 0.0562,-1.18967 -0.82733,-4.55869 -1.96289,-7.48633 -2.92056,-7.52912 -9.16921,-13.67872 -16.78711,-16.52149 -2.96219,-1.10539 -6.3682,-1.95789 -7.56836,-1.89453 -0.4369,0.0231 -0.8546,-0.0324 -1.26563,-0.082 z"
       inkscape:export-filename="NFCAT/logo.png"
       inkscape:export-xdpi="96"
       inkscape:export-ydpi="96" />
  </g>
</svg>
